<mxfile host="app.diagrams.net" modified="2021-07-19T10:50:52.878Z" agent="5.0 (Windows)" etag="HLOSC6fy91iRS5kVyDP4" version="14.8.1" type="github">
  <diagram id="OWBz_421HDfszKowA1L1" name="Page-1">
    <mxGraphModel dx="1422" dy="780" grid="1" gridSize="10" guides="1" tooltips="1" connect="1" arrows="1" fold="1" page="1" pageScale="1" pageWidth="1169" pageHeight="827" math="0" shadow="0">
      <root>
        <mxCell id="0" />
        <mxCell id="1" parent="0" />
        <mxCell id="PtJtEN2HEi5iotzQ8cYV-1" value="" style="rounded=1;whiteSpace=wrap;html=1;" vertex="1" parent="1">
          <mxGeometry x="220" y="390" width="220" height="143" as="geometry" />
        </mxCell>
        <mxCell id="PtJtEN2HEi5iotzQ8cYV-2" value="" style="rounded=0;whiteSpace=wrap;html=1;fillColor=#fff2cc;strokeColor=#d6b656;" vertex="1" parent="1">
          <mxGeometry x="230" y="425" width="200" height="100" as="geometry" />
        </mxCell>
        <mxCell id="PtJtEN2HEi5iotzQ8cYV-3" value="Cache" style="rounded=0;whiteSpace=wrap;html=1;fillColor=#ffe6cc;strokeColor=#d79b00;" vertex="1" parent="1">
          <mxGeometry x="336" y="440" width="80" height="35" as="geometry" />
        </mxCell>
        <mxCell id="PtJtEN2HEi5iotzQ8cYV-4" value="Task" style="rounded=0;whiteSpace=wrap;html=1;fillColor=#ffe6cc;strokeColor=#d79b00;" vertex="1" parent="1">
          <mxGeometry x="336" y="480" width="80" height="35" as="geometry" />
        </mxCell>
        <mxCell id="PtJtEN2HEi5iotzQ8cYV-5" value="Task" style="rounded=0;whiteSpace=wrap;html=1;fillColor=#ffe6cc;strokeColor=#d79b00;" vertex="1" parent="1">
          <mxGeometry x="246" y="480" width="80" height="35" as="geometry" />
        </mxCell>
        <mxCell id="PtJtEN2HEi5iotzQ8cYV-6" value="&lt;div align=&quot;left&quot;&gt;Executer&lt;/div&gt;" style="text;html=1;strokeColor=none;fillColor=none;align=left;verticalAlign=middle;whiteSpace=wrap;rounded=0;" vertex="1" parent="1">
          <mxGeometry x="246" y="440" width="74" height="30" as="geometry" />
        </mxCell>
        <mxCell id="PtJtEN2HEi5iotzQ8cYV-7" value="&lt;font style=&quot;font-size: 15px&quot;&gt;Worker Node&lt;/font&gt;" style="text;html=1;strokeColor=none;fillColor=none;align=center;verticalAlign=middle;whiteSpace=wrap;rounded=0;" vertex="1" parent="1">
          <mxGeometry x="230" y="390" width="120" height="30" as="geometry" />
        </mxCell>
        <mxCell id="PtJtEN2HEi5iotzQ8cYV-8" value="" style="rounded=1;whiteSpace=wrap;html=1;" vertex="1" parent="1">
          <mxGeometry x="469" y="390" width="220" height="143" as="geometry" />
        </mxCell>
        <mxCell id="PtJtEN2HEi5iotzQ8cYV-9" value="" style="rounded=0;whiteSpace=wrap;html=1;fillColor=#fff2cc;strokeColor=#d6b656;" vertex="1" parent="1">
          <mxGeometry x="479" y="425" width="200" height="100" as="geometry" />
        </mxCell>
        <mxCell id="PtJtEN2HEi5iotzQ8cYV-10" value="Cache" style="rounded=0;whiteSpace=wrap;html=1;fillColor=#ffe6cc;strokeColor=#d79b00;" vertex="1" parent="1">
          <mxGeometry x="585" y="440" width="80" height="35" as="geometry" />
        </mxCell>
        <mxCell id="PtJtEN2HEi5iotzQ8cYV-11" value="Task" style="rounded=0;whiteSpace=wrap;html=1;fillColor=#ffe6cc;strokeColor=#d79b00;" vertex="1" parent="1">
          <mxGeometry x="585" y="480" width="80" height="35" as="geometry" />
        </mxCell>
        <mxCell id="PtJtEN2HEi5iotzQ8cYV-12" value="Task" style="rounded=0;whiteSpace=wrap;html=1;fillColor=#ffe6cc;strokeColor=#d79b00;" vertex="1" parent="1">
          <mxGeometry x="495" y="480" width="80" height="35" as="geometry" />
        </mxCell>
        <mxCell id="PtJtEN2HEi5iotzQ8cYV-13" value="&lt;div align=&quot;left&quot;&gt;Executer&lt;/div&gt;" style="text;html=1;strokeColor=none;fillColor=none;align=left;verticalAlign=middle;whiteSpace=wrap;rounded=0;" vertex="1" parent="1">
          <mxGeometry x="495" y="440" width="74" height="30" as="geometry" />
        </mxCell>
        <mxCell id="PtJtEN2HEi5iotzQ8cYV-14" value="&lt;font style=&quot;font-size: 15px&quot;&gt;Worker Node&lt;/font&gt;" style="text;html=1;strokeColor=none;fillColor=none;align=center;verticalAlign=middle;whiteSpace=wrap;rounded=0;" vertex="1" parent="1">
          <mxGeometry x="479" y="390" width="120" height="30" as="geometry" />
        </mxCell>
        <mxCell id="PtJtEN2HEi5iotzQ8cYV-15" value="" style="rounded=1;whiteSpace=wrap;html=1;" vertex="1" parent="1">
          <mxGeometry x="720" y="390" width="220" height="143" as="geometry" />
        </mxCell>
        <mxCell id="PtJtEN2HEi5iotzQ8cYV-16" value="" style="rounded=0;whiteSpace=wrap;html=1;fillColor=#fff2cc;strokeColor=#d6b656;" vertex="1" parent="1">
          <mxGeometry x="730" y="425" width="200" height="100" as="geometry" />
        </mxCell>
        <mxCell id="PtJtEN2HEi5iotzQ8cYV-17" value="Cache" style="rounded=0;whiteSpace=wrap;html=1;fillColor=#ffe6cc;strokeColor=#d79b00;" vertex="1" parent="1">
          <mxGeometry x="836" y="440" width="80" height="35" as="geometry" />
        </mxCell>
        <mxCell id="PtJtEN2HEi5iotzQ8cYV-18" value="Task" style="rounded=0;whiteSpace=wrap;html=1;fillColor=#ffe6cc;strokeColor=#d79b00;" vertex="1" parent="1">
          <mxGeometry x="836" y="480" width="80" height="35" as="geometry" />
        </mxCell>
        <mxCell id="PtJtEN2HEi5iotzQ8cYV-19" value="Task" style="rounded=0;whiteSpace=wrap;html=1;fillColor=#ffe6cc;strokeColor=#d79b00;" vertex="1" parent="1">
          <mxGeometry x="746" y="480" width="80" height="35" as="geometry" />
        </mxCell>
        <mxCell id="PtJtEN2HEi5iotzQ8cYV-20" value="&lt;div align=&quot;left&quot;&gt;Executer&lt;/div&gt;" style="text;html=1;strokeColor=none;fillColor=none;align=left;verticalAlign=middle;whiteSpace=wrap;rounded=0;" vertex="1" parent="1">
          <mxGeometry x="746" y="440" width="74" height="30" as="geometry" />
        </mxCell>
        <mxCell id="PtJtEN2HEi5iotzQ8cYV-21" value="&lt;font style=&quot;font-size: 15px&quot;&gt;Worker Node&lt;/font&gt;" style="text;html=1;strokeColor=none;fillColor=none;align=center;verticalAlign=middle;whiteSpace=wrap;rounded=0;" vertex="1" parent="1">
          <mxGeometry x="730" y="390" width="120" height="30" as="geometry" />
        </mxCell>
        <mxCell id="PtJtEN2HEi5iotzQ8cYV-22" value="" style="rounded=0;whiteSpace=wrap;html=1;" vertex="1" parent="1">
          <mxGeometry x="477" y="211" width="215" height="100" as="geometry" />
        </mxCell>
      </root>
    </mxGraphModel>
  </diagram>
</mxfile>
